# xmcd
#
# Track frame offsets: 
#        150
#        15422
#        28049
#        43131
#        58829
#        80612
#        101074
#        129411
#        145923
#        164757
#        184747
#        202750
#        218772
#        242599
#
# Disc length: 3553 seconds
#
# Revision: 1
# Processed by: cddbd v1.5.2PL0 Copyright (c) Steve Scherf et al.
# Submitted via: ExactAudioCopy v1.0b3
#
DISCID=c20ddf0e
DTITLE=大城美佐子 - 唄ウムイ
DYEAR=2007
DGENRE=沖縄民謡
TTITLE0=あやぐ節
TTITLE1=てぃんさぐぬ花
TTITLE2=デンスナー節
TTITLE3=主ン妻節（すんとぅじぶし）
TTITLE4=貫花（ぬちばな）～南嶽節（なんだきぶし）
TTITLE5=移民小唄
TTITLE6=ナークニー～山原汀間当（やんばるてぃーまとう）
TTITLE7=国頭大福（くんじゃんでーふく）
TTITLE8=ケーヒットゥリ節～六角堂
TTITLE9=敷島煙草（しきしまたばく）
TTITLE10=白雲節
TTITLE11=廃藩ぬ武士（はいばんぬさむれー）
TTITLE12=親の心（うやぬくくる）
TTITLE13=別れの煙（わかれのちむり）
EXTD=YEAR: 2007
EXTT0=
EXTT1=
EXTT2=
EXTT3=
EXTT4=
EXTT5=
EXTT6=
EXTT7=
EXTT8=
EXTT9=
EXTT10=
EXTT11=
EXTT12=
EXTT13=
PLAYORDER=
